<?xml version="1.0" encoding="UTF-8"?>
<svg xmlns="http://www.w3.org/2000/svg" viewBox="0 0 1080 1080">
  <defs>
    <style>
      .cls-1 {
        fill: #fff;
      }

      .cls-1, .cls-2 {
        stroke-width: 0px;
      }

      .cls-2 {
        fill: #0d766e;
      }
    </style>
  </defs>
  <g id="Layer_3" data-name="Layer 3">
    <circle class="cls-1" cx="540" cy="540" r="540"/>
  </g>
  <g id="Layer_6" data-name="Layer 6">
    <g>
      <path class="cls-2" d="M854.19,540.63c0,98.31-45.19,186.07-115.92,243.63-17.12,13.94-35.74,26.11-55.58,36.22-42.75,21.81-91.16,34.11-142.45,34.11-173.39,0-313.95-140.57-313.95-313.96s140.56-313.95,313.95-313.95c98.09,0,185.67,44.98,243.23,115.44,17.76,21.72,32.66,45.87,44.12,71.87,17.1,38.73,26.6,81.58,26.6,126.64Z"/>
      <path class="cls-2" d="M835.86,375.79c1.17-.28,48.87-11.49-9.09,25.69,0,0,37.21-11.27.82,12.51-11.46-26-26.36-50.14-44.12-71.87,36.32-18.71,72.89-35.59,83.6-33.86,0,0,1.78,17.49-54.69,53.8,0,0,106.93-42.06,23.48,13.72Z"/>
      <path class="cls-2" d="M742.63,884.61s-48.71-7.09-49.6-14.17c-.73-5.82-3.85-8.06-10.35-49.96,19.84-10.11,38.46-22.28,55.58-36.22,24.52,36.8,63.21,95.62,65.92,104.34,3.99,12.84-49.6-2.66-49.6-2.66,0,0,51.82,120.1,54.03,127.1,2.21,6.99-62.44-122.23-65.99-128.43Z"/>
      <path class="cls-1" d="M799.1,451.3s33.21-4.87-6.86,20.6c0,0,20.15-.23-9.75,21.26,0,0,6.87,7.09-9.08,17.71,0,0,4.65,23.25-11.73,25.46,0,0,6.43,16.39-12.4,19.49,0,0,1.99,15.72-13.06,13.95,0,0,6.86,9.96-6.64,14.17,0,0-.44,30.55-17.49,19.49,0,0,2.44,10.18-7.53,8.85,0,0-3.32,7.3-14.4,4.87,0,0,4.87,11.95-9.3,9.96,0,0,2.88,19.25-25.45-13.27.2.54,4.86,13.59-16.84-2.9,0,0,66.87,89.01,90.34,141.26,0,0,4.83,9.01-4.44,5.36-1.6-.63-3.62-1.64-6.17-3.14.25.38,8.59,12.73,19.98,29.83-17.12,13.94-35.74,26.11-55.58,36.22-1.4-9.09-2.97-20.03-4.71-33.29,0,0-43.84-31.89-66.87-56.68,0,0-116.9-39.86-159.86-116.47,0,0-9.74-13.29-9.3-42.07,0,0-3.54-26.13-16.82-39.86,0,0-15.06-15.5-18.6-35.87,0,0-47.6-18.38-81.37-8.08,0,0,22.37-22.81,82.26-19.15,0,0,12.55-25.17,51.51-24.87,0,0,43.7-154.03,56.98-150.27,0,0,5.76-3.1,4.65,19.7,0,0,22.37-33.87,15.28,24.36,0,0,35.87-43.62,15.5,23.02,0,0,28.11-28.58,10.86,29.97.55-.64,18.23-21.3,9.51,24.27,0,0,12.13-12.39,2.41,20.37,0,0,7.74-7.09,3.77,18.38,0,0,8.2-4.87,3.34,15.5,0,0,6.63-2.44,1.54,14.61,0,0,7.75-2.21,0,19.04,0,0,5.98-.23,11.07-19.71,0,0,21.03-68.86,104.95-94.99,0,0,42.17-24.39,84.67-46.29,17.76,21.72,32.66,45.87,44.12,71.87-4.08,2.67-9.11,5.78-15.21,9.41,0,0,41.4-8.41-13.29,27.9Z"/>
      <path class="cls-2" d="M458.92,442.8s54.19-1.85,90.95,31.3c0,0,15.5,12.78,15.5,35.37,0,0-.89-19.48-12.69-30.11-11.81-10.63-35.02-32.62-93.75-35.13v-1.43Z"/>
      <circle class="cls-2" cx="451.38" cy="476.57" r="7.54"/>
    </g>
  </g>
</svg>